<svg width="341" height="286" viewBox="0 0 341 286" fill="#2D5AFA" xmlns="http://www.w3.org/2000/svg">
<path d="M142.989 179.999C154.151 179.999 163.2 189.048 163.2 200.21V232.799C163.2 261.959 139.56 285.599 110.399 285.599C81.239 285.598 57.5996 261.959 57.5996 232.799C57.5997 203.638 81.239 179.999 110.399 179.999H142.989Z" fill="#2D5AFA"/>
<path d="M230.4 179.999C259.561 179.999 283.2 203.638 283.2 232.799C283.2 261.959 259.561 285.598 230.4 285.599C201.24 285.599 177.601 261.959 177.601 232.799V200.21C177.601 189.048 186.649 179.999 197.811 179.999H230.4Z" fill="#2D5AFA"/>
<path d="M171.148 144C171.148 158.994 183.303 171.148 198.297 171.148C183.303 171.148 171.148 183.303 171.148 198.297C171.148 183.303 158.994 171.148 144 171.148C158.994 171.148 171.148 158.994 171.148 144Z" fill="#2D5AFA"/>
<path d="M81.5996 0C126.666 0 163.2 36.5333 163.2 81.5996V140.053C163.2 152.837 152.837 163.2 140.053 163.2H81.5996C36.5333 163.2 0 126.666 0 81.5996C0.000210287 36.5335 36.5335 0.000210312 81.5996 0Z" fill="#2D5AFA"/>
<path d="M259.2 0C304.266 5.36092e-05 340.8 36.5334 340.8 81.5996C340.8 126.666 304.267 163.2 259.2 163.2H200.747C187.963 163.2 177.601 152.836 177.601 140.053V81.5996C177.601 36.5333 214.134 0 259.2 0Z" fill="#2D5AFA"/>
</svg>